<svg width="85" height="72" viewBox="0 0 85 72" fill="none" xmlns="http://www.w3.org/2000/svg">
<path d="M32.2881 44.091C31.1874 44.091 30.2774 43.8353 29.5581 43.324C28.8474 42.804 28.4618 42.0457 28.4011 41.049H31.4691C31.5124 41.5777 31.7464 41.842 32.1711 41.842C32.3271 41.842 32.4571 41.8073 32.5611 41.738C32.6738 41.66 32.7301 41.543 32.7301 41.387C32.7301 41.1703 32.6131 40.997 32.3791 40.867C32.1451 40.7283 31.7811 40.5723 31.2871 40.399C30.6978 40.191 30.2081 39.9873 29.8181 39.788C29.4368 39.5887 29.1074 39.2983 28.8301 38.917C28.5528 38.5357 28.4184 38.046 28.4271 37.448C28.4271 36.85 28.5788 36.343 28.8821 35.927C29.1941 35.5023 29.6144 35.1817 30.1431 34.965C30.6804 34.7483 31.2828 34.64 31.9501 34.64C33.0768 34.64 33.9694 34.9 34.6281 35.42C35.2954 35.94 35.6464 36.6723 35.6811 37.617H32.5741C32.5654 37.357 32.5004 37.1707 32.3791 37.058C32.2578 36.9453 32.1104 36.889 31.9371 36.889C31.8158 36.889 31.7161 36.9323 31.6381 37.019C31.5601 37.097 31.5211 37.2097 31.5211 37.357C31.5211 37.565 31.6338 37.7383 31.8591 37.877C32.0931 38.007 32.4614 38.1673 32.9641 38.358C33.5448 38.5747 34.0214 38.7827 34.3941 38.982C34.7754 39.1813 35.1048 39.4587 35.3821 39.814C35.6594 40.1693 35.7981 40.6157 35.7981 41.153C35.7981 41.7163 35.6594 42.2233 35.3821 42.674C35.1048 43.116 34.7018 43.4627 34.1731 43.714C33.6444 43.9653 33.0161 44.091 32.2881 44.091ZM40.3481 37.097V38.228H43.2081V40.399H40.3481V41.699H43.5981V44H37.4621V34.796H43.5981V37.097H40.3481ZM49.9637 44L48.2347 40.698H48.2217V44H45.3357V34.796H49.6257C50.3711 34.796 51.0081 34.9303 51.5367 35.199C52.0654 35.459 52.4597 35.8187 52.7197 36.278C52.9884 36.7287 53.1227 37.24 53.1227 37.812C53.1227 38.4273 52.9494 38.9733 52.6027 39.45C52.2647 39.9267 51.7751 40.269 51.1337 40.477L53.1357 44H49.9637ZM48.2217 38.774H49.3657C49.6431 38.774 49.8511 38.7133 49.9897 38.592C50.1284 38.462 50.1977 38.2627 50.1977 37.994C50.1977 37.7513 50.1241 37.5607 49.9767 37.422C49.8381 37.2833 49.6344 37.214 49.3657 37.214H48.2217V38.774ZM57.5807 34.796V44H54.6947V34.796H57.5807ZM62.4202 37.097V38.228H65.2802V40.399H62.4202V41.699H65.6702V44H59.5342V34.796H65.6702V37.097H62.4202ZM71.0088 44.091C69.9081 44.091 68.9981 43.8353 68.2788 43.324C67.5681 42.804 67.1825 42.0457 67.1218 41.049H70.1898C70.2331 41.5777 70.4671 41.842 70.8918 41.842C71.0478 41.842 71.1778 41.8073 71.2818 41.738C71.3945 41.66 71.4508 41.543 71.4508 41.387C71.4508 41.1703 71.3338 40.997 71.0998 40.867C70.8658 40.7283 70.5018 40.5723 70.0078 40.399C69.4185 40.191 68.9288 39.9873 68.5388 39.788C68.1575 39.5887 67.8281 39.2983 67.5508 38.917C67.2735 38.5357 67.1391 38.046 67.1478 37.448C67.1478 36.85 67.2995 36.343 67.6028 35.927C67.9148 35.5023 68.3351 35.1817 68.8638 34.965C69.4011 34.7483 70.0035 34.64 70.6708 34.64C71.7975 34.64 72.6901 34.9 73.3488 35.42C74.0161 35.94 74.3671 36.6723 74.4018 37.617H71.2948C71.2861 37.357 71.2211 37.1707 71.0998 37.058C70.9785 36.9453 70.8311 36.889 70.6578 36.889C70.5365 36.889 70.4368 36.9323 70.3588 37.019C70.2808 37.097 70.2418 37.2097 70.2418 37.357C70.2418 37.565 70.3545 37.7383 70.5798 37.877C70.8138 38.007 71.1821 38.1673 71.6848 38.358C72.2655 38.5747 72.7421 38.7827 73.1148 38.982C73.4961 39.1813 73.8255 39.4587 74.1028 39.814C74.3801 40.1693 74.5188 40.6157 74.5188 41.153C74.5188 41.7163 74.3801 42.2233 74.1028 42.674C73.8255 43.116 73.4225 43.4627 72.8938 43.714C72.3651 43.9653 71.7368 44.091 71.0088 44.091Z" fill="#F9F9F9" fill-opacity="0.976471"/>
<g clip-path="url(#clip0_574_8)">
<path d="M17.1137 31.375H3.20903C2.3593 31.375 1.66406 32.0875 1.66406 32.9583V42.4583C1.66406 43.3292 2.3593 44.0417 3.20903 44.0417H7.07144V45.625H13.2513V44.0417H17.1137C17.9634 44.0417 18.651 43.3292 18.651 42.4583L18.6587 32.9583C18.6587 32.0875 17.9634 31.375 17.1137 31.375ZM17.1137 42.4583H3.20903V32.9583H17.1137V42.4583Z" fill="#F9F9F9" fill-opacity="0.976471"/>
</g>
<defs>
<clipPath id="clip0_574_8">
<rect width="18.5396" height="19" fill="white" transform="translate(0.891602 29)"/>
</clipPath>
</defs>
</svg>
